<svg xmlns="http://www.w3.org/2000/svg" xmlns:xlink="http://www.w3.org/1999/xlink" width="500" zoomAndPan="magnify" viewBox="0 0 375 374.999991" height="500" preserveAspectRatio="xMidYMid meet" version="1.0"><defs><g/><clipPath id="924417f1ca"><path d="M 158 117 L 243 117 L 243 237.726562 L 158 237.726562 Z M 158 117 " clip-rule="nonzero"/></clipPath><clipPath id="d1875b9c27"><path d="M 232 110 L 248.480469 110 L 248.480469 127 L 232 127 Z M 232 110 " clip-rule="nonzero"/></clipPath><clipPath id="4710311b6d"><path d="M 126.511719 110 L 143 110 L 143 127 L 126.511719 127 Z M 126.511719 110 " clip-rule="nonzero"/></clipPath></defs><g clip-path="url(#924417f1ca)"><path fill="#c74309" d="M 194.632812 237.765625 L 216.109375 237.765625 C 230.425781 237.765625 242.074219 226.117188 242.074219 211.800781 L 242.074219 166.75 C 242.074219 161.5625 237.855469 157.34375 232.664062 157.34375 C 230.160156 157.34375 227.800781 158.324219 226.019531 160.105469 C 225.703125 160.425781 225.410156 160.761719 225.140625 161.113281 C 223.425781 158.824219 220.6875 157.34375 217.613281 157.34375 C 214.539062 157.34375 211.804688 158.824219 210.085938 161.113281 C 209.820312 160.761719 209.527344 160.421875 209.210938 160.105469 C 207.429688 158.324219 205.066406 157.34375 202.5625 157.34375 C 200.058594 157.34375 197.699219 158.324219 195.917969 160.105469 C 194.136719 161.886719 193.15625 164.246094 193.15625 166.75 C 193.15625 167.792969 193.996094 168.632812 195.039062 168.632812 C 196.078125 168.632812 196.921875 167.792969 196.921875 166.75 C 196.921875 165.253906 197.507812 163.835938 198.578125 162.769531 C 199.648438 161.699219 201.0625 161.109375 202.5625 161.109375 C 204.0625 161.109375 205.476562 161.699219 206.546875 162.769531 C 207.617188 163.839844 208.207031 165.253906 208.207031 166.75 C 208.207031 167.792969 209.046875 168.632812 210.089844 168.632812 C 211.128906 168.632812 211.972656 167.792969 211.972656 166.75 C 211.972656 163.640625 214.503906 161.109375 217.613281 161.109375 C 220.726562 161.109375 223.257812 163.640625 223.257812 166.75 C 223.257812 167.792969 224.101562 168.632812 225.140625 168.632812 C 226.179688 168.632812 227.023438 167.792969 227.023438 166.75 C 227.023438 165.253906 227.613281 163.835938 228.683594 162.769531 C 229.75 161.699219 231.167969 161.109375 232.664062 161.109375 C 235.777344 161.109375 238.308594 163.640625 238.308594 166.75 L 238.308594 211.800781 C 238.308594 224.039062 228.351562 234 216.109375 234 L 194.632812 234 C 181.242188 234 176.679688 221.746094 171.390625 207.558594 C 169.039062 201.242188 166.605469 194.710938 163.214844 188.835938 C 162.464844 187.535156 162.265625 186.015625 162.65625 184.554688 C 163.050781 183.09375 163.980469 181.875 165.277344 181.125 C 167.972656 179.570312 171.429688 180.496094 172.988281 183.191406 L 178.355469 192.492188 C 178.78125 193.226562 179.652344 193.585938 180.472656 193.367188 C 181.296875 193.148438 181.867188 192.402344 181.867188 191.550781 L 181.871094 126.472656 C 181.871094 123.359375 184.402344 120.828125 187.511719 120.828125 C 190.625 120.828125 193.15625 123.359375 193.15625 126.472656 C 193.15625 127.511719 194 128.355469 195.039062 128.355469 C 196.078125 128.355469 196.921875 127.511719 196.921875 126.472656 C 196.921875 121.285156 192.699219 117.0625 187.511719 117.0625 C 182.324219 117.0625 178.105469 121.285156 178.105469 126.472656 L 178.101562 184.523438 L 176.246094 181.308594 C 173.652344 176.816406 167.890625 175.269531 163.394531 177.863281 C 158.902344 180.457031 157.359375 186.222656 159.953125 190.71875 C 163.1875 196.324219 165.566406 202.703125 167.863281 208.871094 C 173.398438 223.730469 178.628906 237.765625 194.632812 237.765625 Z M 194.632812 237.765625 " fill-opacity="1" fill-rule="nonzero"/></g><path fill="#c74309" d="M 195.039062 182.679688 C 196.078125 182.679688 196.921875 181.835938 196.921875 180.796875 L 196.921875 126.472656 C 196.921875 125.433594 196.078125 124.589844 195.039062 124.589844 C 193.996094 124.589844 193.15625 125.433594 193.15625 126.472656 L 193.15625 180.796875 C 193.15625 181.835938 193.996094 182.679688 195.039062 182.679688 Z M 195.039062 182.679688 " fill-opacity="1" fill-rule="nonzero"/><path fill="#c74309" d="M 210.089844 182.679688 C 211.128906 182.679688 211.972656 181.835938 211.972656 180.796875 L 211.972656 166.75 C 211.972656 165.710938 211.128906 164.867188 210.089844 164.867188 C 209.050781 164.867188 208.207031 165.710938 208.207031 166.75 L 208.207031 180.796875 C 208.207031 181.835938 209.050781 182.679688 210.089844 182.679688 Z M 210.089844 182.679688 " fill-opacity="1" fill-rule="nonzero"/><path fill="#c74309" d="M 225.140625 182.679688 C 226.179688 182.679688 227.023438 181.835938 227.023438 180.796875 L 227.023438 166.75 C 227.023438 165.710938 226.179688 164.867188 225.140625 164.867188 C 224.101562 164.867188 223.257812 165.710938 223.257812 166.75 L 223.257812 180.796875 C 223.257812 181.835938 224.101562 182.679688 225.140625 182.679688 Z M 225.140625 182.679688 " fill-opacity="1" fill-rule="nonzero"/><path fill="#c74309" d="M 167.410156 127.636719 C 168.449219 127.636719 169.292969 126.792969 169.292969 125.753906 C 169.292969 115.707031 177.464844 107.535156 187.511719 107.535156 C 197.558594 107.535156 205.730469 115.707031 205.730469 125.753906 C 205.730469 126.792969 206.574219 127.636719 207.613281 127.636719 C 208.652344 127.636719 209.496094 126.792969 209.496094 125.753906 C 209.496094 113.628906 199.632812 103.769531 187.511719 103.769531 C 175.390625 103.769531 165.527344 113.628906 165.527344 125.753906 C 165.527344 126.792969 166.371094 127.636719 167.410156 127.636719 Z M 167.410156 127.636719 " fill-opacity="1" fill-rule="nonzero"/><path fill="#c74309" d="M 215.433594 120.355469 L 234.488281 120.355469 C 235.527344 120.355469 236.371094 119.511719 236.371094 118.472656 C 236.371094 117.433594 235.527344 116.589844 234.488281 116.589844 L 215.433594 116.589844 C 214.390625 116.589844 213.550781 117.433594 213.550781 118.472656 C 213.550781 119.511719 214.390625 120.355469 215.433594 120.355469 Z M 215.433594 120.355469 " fill-opacity="1" fill-rule="nonzero"/><g clip-path="url(#d1875b9c27)"><path fill="#c74309" d="M 240.691406 126.558594 C 245.152344 126.558594 248.78125 122.929688 248.78125 118.472656 C 248.78125 114.011719 245.152344 110.382812 240.691406 110.382812 C 236.234375 110.382812 232.605469 114.011719 232.605469 118.472656 C 232.605469 122.929688 236.234375 126.558594 240.691406 126.558594 Z M 240.691406 114.148438 C 243.074219 114.148438 245.015625 116.089844 245.015625 118.472656 C 245.015625 120.855469 243.074219 122.792969 240.691406 122.792969 C 238.308594 122.792969 236.371094 120.855469 236.371094 118.472656 C 236.371094 116.089844 238.308594 114.148438 240.691406 114.148438 Z M 240.691406 114.148438 " fill-opacity="1" fill-rule="nonzero"/></g><path fill="#c74309" d="M 140.535156 120.355469 L 159.59375 120.355469 C 160.632812 120.355469 161.476562 119.511719 161.476562 118.472656 C 161.476562 117.433594 160.632812 116.589844 159.59375 116.589844 L 140.535156 116.589844 C 139.496094 116.589844 138.652344 117.433594 138.652344 118.472656 C 138.652344 119.511719 139.496094 120.355469 140.535156 120.355469 Z M 140.535156 120.355469 " fill-opacity="1" fill-rule="nonzero"/><g clip-path="url(#4710311b6d)"><path fill="#c74309" d="M 134.332031 126.558594 C 138.792969 126.558594 142.417969 122.929688 142.417969 118.472656 C 142.417969 114.011719 138.792969 110.382812 134.332031 110.382812 C 129.871094 110.382812 126.246094 114.011719 126.246094 118.472656 C 126.246094 122.929688 129.871094 126.558594 134.332031 126.558594 Z M 134.332031 114.148438 C 136.714844 114.148438 138.652344 116.089844 138.652344 118.472656 C 138.652344 120.855469 136.714844 122.792969 134.332031 122.792969 C 131.949219 122.792969 130.011719 120.855469 130.011719 118.472656 C 130.011719 116.089844 131.949219 114.148438 134.332031 114.148438 Z M 134.332031 114.148438 " fill-opacity="1" fill-rule="nonzero"/></g><path fill="#c74309" d="M 201.582031 102.074219 C 202.621094 102.074219 203.464844 101.230469 203.464844 100.191406 L 203.464844 82.796875 C 203.464844 82.367188 203.8125 82.019531 204.242188 82.019531 L 216.871094 82.019531 C 217.910156 82.019531 218.753906 81.175781 218.753906 80.136719 C 218.753906 79.097656 217.910156 78.253906 216.871094 78.253906 L 204.242188 78.253906 C 201.738281 78.253906 199.699219 80.292969 199.699219 82.796875 L 199.699219 100.191406 C 199.699219 101.230469 200.542969 102.074219 201.582031 102.074219 Z M 201.582031 102.074219 " fill-opacity="1" fill-rule="nonzero"/><path fill="#c74309" d="M 223.078125 88.226562 C 227.535156 88.226562 231.164062 84.597656 231.164062 80.136719 C 231.164062 75.679688 227.535156 72.050781 223.078125 72.050781 C 218.617188 72.050781 214.988281 75.679688 214.988281 80.136719 C 214.988281 84.597656 218.617188 88.226562 223.078125 88.226562 Z M 223.078125 75.816406 C 225.460938 75.816406 227.398438 77.753906 227.398438 80.136719 C 227.398438 82.519531 225.460938 84.460938 223.078125 84.460938 C 220.695312 84.460938 218.753906 82.519531 218.753906 80.136719 C 218.753906 77.753906 220.695312 75.816406 223.078125 75.816406 Z M 223.078125 75.816406 " fill-opacity="1" fill-rule="nonzero"/><path fill="#c74309" d="M 173.441406 102.074219 C 174.480469 102.074219 175.324219 101.230469 175.324219 100.191406 L 175.324219 82.796875 C 175.324219 80.292969 173.285156 78.253906 170.78125 78.253906 L 158.152344 78.253906 C 157.113281 78.253906 156.269531 79.097656 156.269531 80.136719 C 156.269531 81.175781 157.113281 82.019531 158.152344 82.019531 L 170.78125 82.019531 C 171.210938 82.019531 171.558594 82.367188 171.558594 82.796875 L 171.558594 100.191406 C 171.558594 101.230469 172.402344 102.074219 173.441406 102.074219 Z M 173.441406 102.074219 " fill-opacity="1" fill-rule="nonzero"/><path fill="#c74309" d="M 151.949219 88.226562 C 156.40625 88.226562 160.035156 84.597656 160.035156 80.136719 C 160.035156 75.679688 156.40625 72.050781 151.949219 72.050781 C 147.488281 72.050781 143.859375 75.679688 143.859375 80.136719 C 143.859375 84.597656 147.488281 88.226562 151.949219 88.226562 Z M 151.949219 75.816406 C 154.332031 75.816406 156.269531 77.753906 156.269531 80.136719 C 156.269531 82.519531 154.332031 84.460938 151.949219 84.460938 C 149.566406 84.460938 147.625 82.519531 147.625 80.136719 C 147.625 77.753906 149.566406 75.816406 151.949219 75.816406 Z M 151.949219 75.816406 " fill-opacity="1" fill-rule="nonzero"/><path fill="#c74309" d="M 187.511719 88.226562 C 191.972656 88.226562 195.601562 84.597656 195.601562 80.136719 C 195.601562 75.679688 191.972656 72.050781 187.511719 72.050781 C 183.054688 72.050781 179.425781 75.679688 179.425781 80.136719 C 179.425781 84.597656 183.054688 88.226562 187.511719 88.226562 Z M 187.511719 75.816406 C 189.894531 75.816406 191.835938 77.753906 191.835938 80.136719 C 191.835938 82.519531 189.894531 84.460938 187.511719 84.460938 C 185.128906 84.460938 183.191406 82.519531 183.191406 80.136719 C 183.191406 77.753906 185.128906 75.816406 187.511719 75.816406 Z M 187.511719 75.816406 " fill-opacity="1" fill-rule="nonzero"/><path fill="#c74309" d="M 187.511719 102.074219 C 188.550781 102.074219 189.394531 101.230469 189.394531 100.191406 L 189.394531 86.34375 C 189.394531 85.300781 188.550781 84.460938 187.511719 84.460938 C 186.472656 84.460938 185.628906 85.300781 185.628906 86.34375 L 185.628906 100.191406 C 185.628906 101.230469 186.472656 102.074219 187.511719 102.074219 Z M 187.511719 102.074219 " fill-opacity="1" fill-rule="nonzero"/><path fill="#c74309" d="M 206.902344 144.285156 L 225.957031 144.285156 C 226.996094 144.285156 227.839844 143.441406 227.839844 142.402344 C 227.839844 141.363281 226.996094 140.519531 225.957031 140.519531 L 206.902344 140.519531 C 205.859375 140.519531 205.019531 141.363281 205.019531 142.402344 C 205.019531 143.441406 205.859375 144.285156 206.902344 144.285156 Z M 206.902344 144.285156 " fill-opacity="1" fill-rule="nonzero"/><path fill="#c74309" d="M 232.160156 150.488281 C 236.621094 150.488281 240.25 146.863281 240.25 142.402344 C 240.25 137.941406 236.621094 134.316406 232.160156 134.316406 C 227.703125 134.316406 224.074219 137.941406 224.074219 142.402344 C 224.074219 146.863281 227.703125 150.488281 232.160156 150.488281 Z M 232.160156 138.082031 C 234.546875 138.082031 236.484375 140.019531 236.484375 142.402344 C 236.484375 144.785156 234.546875 146.722656 232.160156 146.722656 C 229.777344 146.722656 227.839844 144.785156 227.839844 142.402344 C 227.839844 140.019531 229.777344 138.082031 232.160156 138.082031 Z M 232.160156 138.082031 " fill-opacity="1" fill-rule="nonzero"/><path fill="#c74309" d="M 149.066406 144.285156 L 168.125 144.285156 C 169.164062 144.285156 170.007812 143.441406 170.007812 142.402344 C 170.007812 141.363281 169.164062 140.519531 168.125 140.519531 L 149.066406 140.519531 C 148.027344 140.519531 147.183594 141.363281 147.183594 142.402344 C 147.183594 143.441406 148.027344 144.285156 149.066406 144.285156 Z M 149.066406 144.285156 " fill-opacity="1" fill-rule="nonzero"/><path fill="#c74309" d="M 142.863281 150.488281 C 147.320312 150.488281 150.949219 146.863281 150.949219 142.402344 C 150.949219 137.941406 147.320312 134.316406 142.863281 134.316406 C 138.402344 134.316406 134.777344 137.941406 134.777344 142.402344 C 134.777344 146.863281 138.402344 150.488281 142.863281 150.488281 Z M 142.863281 138.082031 C 145.246094 138.082031 147.183594 140.019531 147.183594 142.402344 C 147.183594 144.785156 145.246094 146.722656 142.863281 146.722656 C 140.480469 146.722656 138.539062 144.785156 138.539062 142.402344 C 138.539062 140.019531 140.480469 138.082031 142.863281 138.082031 Z M 142.863281 138.082031 " fill-opacity="1" fill-rule="nonzero"/><path fill="#c74309" d="M 197.886719 218.035156 C 207.664062 218.035156 215.105469 215.738281 220.0625 211.179688 C 225.765625 205.933594 225.90625 199.636719 225.90625 199.375 C 225.921875 198.332031 225.085938 197.480469 224.046875 197.46875 C 223.007812 197.46875 222.160156 198.285156 222.140625 199.320312 C 222.136719 199.546875 221.960938 204.367188 217.441406 208.472656 C 212.457031 213.003906 204.28125 214.894531 193.136719 214.09375 C 192.101562 214.019531 191.199219 214.796875 191.125 215.835938 C 191.050781 216.871094 191.832031 217.773438 192.867188 217.847656 C 194.605469 217.972656 196.277344 218.035156 197.886719 218.035156 Z M 197.886719 218.035156 " fill-opacity="1" fill-rule="nonzero"/><path fill="#c74309" d="M 149.066406 165.777344 L 168.125 165.777344 C 169.164062 165.777344 170.007812 164.9375 170.007812 163.894531 C 170.007812 162.855469 169.164062 162.011719 168.125 162.011719 L 149.066406 162.011719 C 148.027344 162.011719 147.183594 162.855469 147.183594 163.894531 C 147.183594 164.9375 148.027344 165.777344 149.066406 165.777344 Z M 149.066406 165.777344 " fill-opacity="1" fill-rule="nonzero"/><path fill="#c74309" d="M 142.863281 171.984375 C 147.320312 171.984375 150.949219 168.355469 150.949219 163.894531 C 150.949219 159.4375 147.320312 155.808594 142.863281 155.808594 C 138.402344 155.808594 134.777344 159.4375 134.777344 163.894531 C 134.777344 168.355469 138.402344 171.984375 142.863281 171.984375 Z M 142.863281 159.574219 C 145.246094 159.574219 147.183594 161.511719 147.183594 163.898438 C 147.183594 166.28125 145.246094 168.21875 142.863281 168.21875 C 140.480469 168.21875 138.539062 166.28125 138.539062 163.898438 C 138.539062 161.511719 140.480469 159.574219 142.863281 159.574219 Z M 142.863281 159.574219 " fill-opacity="1" fill-rule="nonzero"/><g fill="#c74309" fill-opacity="1"><g transform="translate(114.748452, 271.903665)"><g><path d="M 18.734375 -5.4375 L 6.578125 -5.4375 L 4.265625 0 L 0.03125 0 L 10.671875 -24.109375 L 14.84375 -24.109375 L 25.375 0 L 21.046875 0 Z M 17.1875 -9.0625 L 12.640625 -19.765625 L 8.09375 -9.0625 Z M 17.1875 -9.0625 "/></g></g></g><g fill="#c74309" fill-opacity="1"><g transform="translate(141.914092, 271.903665)"><g><path d="M 3.234375 -25.296875 C 3.671875 -25.742188 4.222656 -25.96875 4.890625 -25.96875 C 5.554688 -25.96875 6.109375 -25.742188 6.546875 -25.296875 C 6.984375 -24.847656 7.203125 -24.269531 7.203125 -23.5625 C 7.203125 -22.863281 6.984375 -22.289062 6.546875 -21.84375 C 6.109375 -21.394531 5.554688 -21.171875 4.890625 -21.171875 C 4.222656 -21.171875 3.671875 -21.394531 3.234375 -21.84375 C 2.796875 -22.289062 2.578125 -22.863281 2.578125 -23.5625 C 2.578125 -24.269531 2.796875 -24.847656 3.234375 -25.296875 Z M 6.859375 0 L 2.921875 0 L 2.921875 -18.328125 L 6.859375 -18.328125 Z M 6.859375 0 "/></g></g></g><g fill="#c74309" fill-opacity="1"><g transform="translate(153.448626, 271.903665)"><g><path d="M 11.09375 -24.28125 C 14.207031 -24.28125 17.019531 -23.453125 19.53125 -21.796875 L 17.84375 -18.21875 C 15.382812 -19.707031 13.03125 -20.453125 10.78125 -20.453125 C 9.5625 -20.453125 8.601562 -20.234375 7.90625 -19.796875 C 7.207031 -19.359375 6.859375 -18.738281 6.859375 -17.9375 C 6.859375 -17.132812 7.175781 -16.453125 7.8125 -15.890625 C 8.457031 -15.328125 9.257812 -14.910156 10.21875 -14.640625 C 11.1875 -14.378906 12.234375 -14.046875 13.359375 -13.640625 C 14.484375 -13.242188 15.523438 -12.820312 16.484375 -12.375 C 17.453125 -11.925781 18.253906 -11.222656 18.890625 -10.265625 C 19.523438 -9.316406 19.84375 -8.164062 19.84375 -6.8125 C 19.84375 -4.707031 19 -3.019531 17.3125 -1.75 C 15.625 -0.488281 13.4375 0.140625 10.75 0.140625 C 8.90625 0.140625 7.125 -0.203125 5.40625 -0.890625 C 3.6875 -1.578125 2.179688 -2.507812 0.890625 -3.6875 L 2.65625 -7.203125 C 3.875 -6.078125 5.207031 -5.207031 6.65625 -4.59375 C 8.113281 -3.988281 9.5 -3.6875 10.8125 -3.6875 C 12.238281 -3.6875 13.347656 -3.941406 14.140625 -4.453125 C 14.929688 -4.972656 15.328125 -5.691406 15.328125 -6.609375 C 15.328125 -7.441406 15.003906 -8.140625 14.359375 -8.703125 C 13.710938 -9.265625 12.90625 -9.675781 11.9375 -9.9375 C 10.976562 -10.195312 9.9375 -10.515625 8.8125 -10.890625 C 7.6875 -11.273438 6.640625 -11.675781 5.671875 -12.09375 C 4.710938 -12.519531 3.910156 -13.203125 3.265625 -14.140625 C 2.628906 -15.085938 2.3125 -16.226562 2.3125 -17.5625 C 2.3125 -19.601562 3.113281 -21.234375 4.71875 -22.453125 C 6.320312 -23.671875 8.445312 -24.28125 11.09375 -24.28125 Z M 11.09375 -24.28125 "/></g></g></g><g fill="#c74309" fill-opacity="1"><g transform="translate(176.620415, 271.903665)"><g><path d="M 12.296875 -4.203125 L 13.296875 -1.171875 C 11.773438 -0.273438 10.269531 0.171875 8.78125 0.171875 C 7.289062 0.171875 6.0625 -0.273438 5.09375 -1.171875 C 4.132812 -2.066406 3.65625 -3.398438 3.65625 -5.171875 L 3.65625 -14.671875 L 1.0625 -14.671875 L 1.0625 -17.625 L 3.65625 -17.625 L 3.65625 -22.65625 L 7.578125 -22.65625 L 7.578125 -17.625 L 12.984375 -17.625 L 12.984375 -14.671875 L 7.578125 -14.671875 L 7.578125 -5.890625 C 7.578125 -4.972656 7.738281 -4.328125 8.0625 -3.953125 C 8.382812 -3.585938 8.878906 -3.40625 9.546875 -3.40625 C 10.273438 -3.40625 11.191406 -3.671875 12.296875 -4.203125 Z M 12.296875 -4.203125 "/></g></g></g><g fill="#c74309" fill-opacity="1"><g transform="translate(192.389812, 271.903665)"><g><path d="M 6.890625 -18.328125 L 6.890625 -14.671875 C 8.148438 -17.191406 10.257812 -18.453125 13.21875 -18.453125 L 13.21875 -14.671875 C 11.40625 -14.765625 9.9375 -14.335938 8.8125 -13.390625 C 7.6875 -12.453125 7.046875 -11.179688 6.890625 -9.578125 L 6.890625 0 L 2.921875 0 L 2.921875 -18.328125 Z M 6.890625 -18.328125 "/></g></g></g><g fill="#c74309" fill-opacity="1"><g transform="translate(207.711619, 271.903665)"><g><path d="M 10.46875 -18.453125 C 13.613281 -18.453125 15.890625 -17.503906 17.296875 -15.609375 C 18.710938 -13.722656 19.296875 -11.066406 19.046875 -7.640625 L 5.203125 -7.640625 C 5.523438 -6.222656 6.191406 -5.101562 7.203125 -4.28125 C 8.210938 -3.46875 9.4375 -3.0625 10.875 -3.0625 C 12.945312 -3.0625 14.671875 -3.773438 16.046875 -5.203125 L 18.15625 -2.96875 C 16.269531 -0.894531 13.742188 0.140625 10.578125 0.140625 C 7.753906 0.140625 5.484375 -0.710938 3.765625 -2.421875 C 2.054688 -4.140625 1.203125 -6.375 1.203125 -9.125 C 1.203125 -11.882812 2.0625 -14.125 3.78125 -15.84375 C 5.507812 -17.5625 7.738281 -18.429688 10.46875 -18.453125 Z M 5.125 -10.53125 L 15.59375 -10.53125 C 15.53125 -12 15.035156 -13.160156 14.109375 -14.015625 C 13.191406 -14.867188 11.988281 -15.296875 10.5 -15.296875 C 9.050781 -15.296875 7.847656 -14.867188 6.890625 -14.015625 C 5.941406 -13.160156 5.351562 -12 5.125 -10.53125 Z M 5.125 -10.53125 "/></g></g></g><g fill="#c74309" fill-opacity="1"><g transform="translate(229.712792, 271.903665)"><g><path d="M 13.90625 0 L 13.90625 -2.234375 C 12.601562 -0.628906 10.585938 0.171875 7.859375 0.171875 C 5.898438 0.171875 4.332031 -0.359375 3.15625 -1.421875 C 1.988281 -2.492188 1.40625 -3.859375 1.40625 -5.515625 C 1.40625 -7.191406 2.015625 -8.519531 3.234375 -9.5 C 4.453125 -10.488281 6.148438 -10.992188 8.328125 -11.015625 L 13.875 -11.015625 L 13.875 -11.578125 C 13.875 -12.742188 13.5 -13.644531 12.75 -14.28125 C 12.007812 -14.925781 10.925781 -15.25 9.5 -15.25 C 7.738281 -15.25 5.9375 -14.628906 4.09375 -13.390625 L 2.484375 -16.15625 C 3.878906 -16.976562 5.132812 -17.566406 6.25 -17.921875 C 7.363281 -18.273438 8.734375 -18.453125 10.359375 -18.453125 C 12.703125 -18.453125 14.515625 -17.882812 15.796875 -16.75 C 17.085938 -15.613281 17.742188 -14.035156 17.765625 -12.015625 L 17.796875 0 Z M 8.671875 -2.96875 C 10.078125 -2.96875 11.265625 -3.289062 12.234375 -3.9375 C 13.210938 -4.59375 13.757812 -5.425781 13.875 -6.4375 L 13.875 -8.125 L 8.921875 -8.125 C 7.609375 -8.125 6.644531 -7.929688 6.03125 -7.546875 C 5.425781 -7.171875 5.125 -6.550781 5.125 -5.6875 C 5.125 -4.851562 5.441406 -4.191406 6.078125 -3.703125 C 6.710938 -3.210938 7.578125 -2.96875 8.671875 -2.96875 Z M 8.671875 -2.96875 "/></g></g></g><g fill="#c74309" fill-opacity="1"><g transform="translate(251.645107, 271.903665)"><g><path d="M 26.828125 -18.453125 C 28.910156 -18.453125 30.550781 -17.820312 31.75 -16.5625 C 32.945312 -15.300781 33.546875 -13.582031 33.546875 -11.40625 L 33.546875 0 L 29.578125 0 L 29.578125 -10.296875 C 29.578125 -11.691406 29.191406 -12.785156 28.421875 -13.578125 C 27.660156 -14.378906 26.601562 -14.78125 25.25 -14.78125 C 23.707031 -14.726562 22.484375 -14.164062 21.578125 -13.09375 C 20.671875 -12.03125 20.21875 -10.6875 20.21875 -9.0625 L 20.21875 0 L 16.25 0 L 16.25 -10.296875 C 16.25 -11.691406 15.863281 -12.785156 15.09375 -13.578125 C 14.332031 -14.378906 13.285156 -14.78125 11.953125 -14.78125 C 10.390625 -14.726562 9.148438 -14.164062 8.234375 -13.09375 C 7.316406 -12.03125 6.859375 -10.6875 6.859375 -9.0625 L 6.859375 0 L 2.921875 0 L 2.921875 -18.328125 L 6.859375 -18.328125 L 6.859375 -14.78125 C 8.066406 -17.226562 10.28125 -18.453125 13.5 -18.453125 C 15.125 -18.453125 16.484375 -18.066406 17.578125 -17.296875 C 18.671875 -16.535156 19.4375 -15.453125 19.875 -14.046875 C 21 -16.984375 23.316406 -18.453125 26.828125 -18.453125 Z M 26.828125 -18.453125 "/></g></g></g></svg>