<svg xmlns="http://www.w3.org/2000/svg" width="500" height="500" style="width:100%;height:100%;transform:translate3d(0,0,0);content-visibility:visible" viewBox="0 0 500 500"><defs><clipPath id="a"><path d="M0 0h500v500H0z"/></clipPath><clipPath id="e"><path d="M0 0h500v500H0z"/></clipPath><clipPath id="d"><path d="M0 0h500v500H0z"/></clipPath><clipPath id="c"><path d="M0 0h500v500H0z"/></clipPath><clipPath id="b"><path d="M0 0h500v500H0z"/></clipPath></defs><g clip-path="url(#a)"><g clip-path="url(#b)" style="display:none"><g class="primary design" style="display:none"><path fill="none" class="primary"/></g><g class="primary design" style="display:none"><path fill="none" class="primary"/></g><g class="primary design" style="display:none"><path fill="none" class="primary"/></g><g class="primary design" style="display:none"><path class="primary"/><path class="primary"/><path class="primary"/></g></g><g clip-path="url(#c)" style="display:none"><g class="primary design" style="display:none"><path fill="none" class="primary"/></g><g class="primary design" style="display:none"><path fill="none" class="primary"/></g><g class="primary design" style="display:none"><path fill="none" class="primary"/></g><g class="primary design" style="display:none"><path class="primary"/><path class="primary"/><path class="primary"/></g></g><g clip-path="url(#d)" style="display:block"><g class="primary design" style="display:none"><path fill="none" class="primary"/></g><g class="primary design" style="display:none"><path fill="none" class="primary"/></g><g class="primary design" style="display:none"><path fill="none" class="primary"/></g><g class="primary design" style="display:block"><path fill="#FF4F01" d="M151.06 437.472H78.153c-8.54 0-15.622-7.082-15.622-15.623V265.624c0-8.748 7.082-15.622 15.622-15.622h72.905c8.54 0 15.623 6.874 15.623 15.622V421.85c0 8.54-7.082 15.623-15.623 15.623zm-57.283-31.245h41.66v-124.98h-41.66v124.98zm328.073 31.245h-72.906c-8.54 0-15.622-7.082-15.622-15.623V182.304c0-8.54 7.082-15.622 15.622-15.622h72.905c8.54 0 15.623 7.082 15.623 15.622V421.85c0 8.54-7.082 15.623-15.623 15.623zm-57.283-31.245h41.66v-208.3h-41.66v208.3zm-78.113 31.245H213.55c-8.54 0-15.622-7.082-15.622-15.623V98.984c0-8.54 7.082-15.622 15.622-15.622h72.905c8.54 0 15.623 7.082 15.623 15.622V421.85c0 8.54-7.082 15.623-15.623 15.623zm-57.282-31.245h41.66v-291.62h-41.66v291.62z" class="primary"/></g><g class="primary design" style="display:none"><path fill="#FF4F01" d="M151.06 437.472H78.153c-8.54 0-15.622-7.082-15.622-15.623V265.624c0-8.748 7.082-15.622 15.622-15.622h72.905c8.54 0 15.623 6.874 15.623 15.622V421.85c0 8.54-7.082 15.623-15.623 15.623zm-57.283-31.245h41.66v-124.98h-41.66v124.98zm328.073 31.245h-72.906c-8.54 0-15.622-7.082-15.622-15.623V182.304c0-8.54 7.082-15.622 15.622-15.622h72.905c8.54 0 15.623 7.082 15.623 15.622V421.85c0 8.54-7.082 15.623-15.623 15.623zm-57.283-31.245h41.66v-208.3h-41.66v208.3zm-78.113 31.245H213.55c-8.54 0-15.622-7.082-15.622-15.623V98.984c0-8.54 7.082-15.622 15.622-15.622h72.905c8.54 0 15.623 7.082 15.623 15.622V421.85c0 8.54-7.082 15.623-15.623 15.623zm-57.282-31.245h41.66v-291.62h-41.66v291.62z" class="primary"/></g></g><g clip-path="url(#e)" style="display:none"><g class="primary design" style="display:none"><path fill="none" class="primary"/></g><g class="primary design" style="display:none"><path fill="none" class="primary"/></g><g class="primary design" style="display:none"><path fill="none" class="primary"/></g><g class="primary design" style="display:none"><path class="primary"/><path class="primary"/><path class="primary"/></g></g></g></svg>