<svg xmlns="http://www.w3.org/2000/svg" width="500" height="500" style="width:100%;height:100%;transform:translate3d(0,0,0);content-visibility:visible" viewBox="0 0 500 500"><defs><clipPath id="a"><path d="M0 0h500v500H0z"/></clipPath><clipPath id="d"><path d="M0 0h500v500H0z"/></clipPath><clipPath id="c"><path d="M0 0h500v500H0z"/></clipPath><clipPath id="b"><path d="M0 0h500v500H0z"/></clipPath></defs><g clip-path="url(#a)"><g fill="none" clip-path="url(#b)" style="display:none"><g class="primary design" style="display:none"><path class="primary"/><path class="primary"/></g><g class="primary design" style="display:none"><path class="primary"/><path class="primary"/></g></g><g clip-path="url(#c)" style="display:block"><g class="primary design" style="display:block"><path fill="#FF4F01" d="M250.002 83.362c-46.66 0-90.819 19.997-122.272 53.116v-36.66c0-8.54-7.082-15.623-15.83-15.623-8.75 0-15.623 7.082-15.623 15.623v72.488c0 8.54 7.082 15.622 15.83 15.622h72.905c8.75 0 15.831-7.082 15.831-15.622s-7.082-15.623-15.83-15.623h-33.329c25.205-26.662 60.2-42.076 98.318-42.076 70.614 0 128.73 52.491 135.187 122.272.833 8.124 7.707 14.164 15.622 14.164h1.458c8.749-.833 14.998-8.332 14.165-17.08-7.916-85.82-79.57-150.601-166.432-150.601zM387.48 312.075h-72.905c-8.749 0-15.83 7.083-15.83 15.623s7.081 15.622 15.83 15.622h33.953c-25.413 26.663-60.407 42.077-98.526 42.077-70.614 0-128.73-52.492-135.187-122.272-.833-8.54-8.54-15.206-17.08-14.165-8.749.834-14.998 8.332-14.165 17.081 7.916 85.82 79.57 150.6 166.432 150.6 46.243 0 90.402-19.58 121.647-52.49v36.035c0 8.54 7.082 15.623 15.83 15.623 8.75 0 15.832-7.082 15.832-15.623v-72.488c-.209-8.749-7.29-15.623-15.831-15.623z" class="primary"/></g><g class="primary design" style="display:none"><path fill="#FF4F01" d="M250.002 83.362c-46.66 0-90.819 19.997-122.272 53.116v-36.66c0-8.54-7.082-15.623-15.83-15.623-8.75 0-15.623 7.082-15.623 15.623v72.488c0 8.54 7.082 15.622 15.83 15.622h72.905c8.75 0 15.831-7.082 15.831-15.622s-7.082-15.623-15.83-15.623h-33.329c25.205-26.662 60.2-42.076 98.318-42.076 70.614 0 128.73 52.491 135.187 122.272.833 8.124 7.707 14.164 15.622 14.164h1.458c8.749-.833 14.998-8.332 14.165-17.08-7.916-85.82-79.57-150.601-166.432-150.601zM387.48 312.075h-72.905c-8.749 0-15.83 7.083-15.83 15.623s7.081 15.622 15.83 15.622h33.953c-25.413 26.663-60.407 42.077-98.526 42.077-70.614 0-128.73-52.492-135.187-122.272-.833-8.54-8.54-15.206-17.08-14.165-8.749.834-14.998 8.332-14.165 17.081 7.916 85.82 79.57 150.6 166.432 150.6 46.243 0 90.402-19.58 121.647-52.49v36.035c0 8.54 7.082 15.623 15.83 15.623 8.75 0 15.832-7.082 15.832-15.623v-72.488c-.209-8.749-7.29-15.623-15.831-15.623z" class="primary"/></g><g fill="none" class="primary design" style="display:none"><path class="primary"/><path class="primary"/></g><g fill="none" class="primary design" style="display:none"><path class="primary"/><path class="primary"/></g></g><g clip-path="url(#d)" style="display:none"><g class="primary design" style="display:none"><path class="primary"/><path class="primary"/></g><g fill="none" class="primary design" style="display:none"><path class="primary"/><path class="primary"/></g><g fill="none" class="primary design" style="display:none"><path class="primary"/><path class="primary"/></g></g></g></svg>