<svg xmlns="http://www.w3.org/2000/svg" width="500" height="500" style="width:100%;height:100%;transform:translate3d(0,0,0);content-visibility:visible" viewBox="0 0 500 500"><defs><clipPath id="a"><path d="M0 0h500v500H0z"/></clipPath><clipPath id="c"><path d="M0 0h500v500H0z"/></clipPath><clipPath id="b"><path d="M0 0h500v500H0z"/></clipPath></defs><g clip-path="url(#a)"><g clip-path="url(#b)" style="display:block"><g class="primary design" style="display:none"><path fill="none" class="primary"/></g><g class="primary design" style="display:none"><path fill="#FF4F01" d="M213.534 458.363a15.65 15.65 0 0 1-15.488-17.864l18.282-127.971H98.955a15.651 15.651 0 0 1-12.324-25.295L274.132 47.649a15.647 15.647 0 0 1 18.335-4.805 15.649 15.649 0 0 1 9.518 16.39l-18.644 149.159 117.771.543a15.65 15.65 0 0 1 11.796 25.851L225.407 452.914a15.647 15.647 0 0 1-11.873 5.449zm-82.458-177.135h103.297a15.652 15.652 0 0 1 15.493 17.863l-13.254 92.771 130.472-151.783-101.533-.468a15.648 15.648 0 0 1-15.457-17.591l13.815-110.523-132.833 169.731z" class="primary"/></g><g class="primary design" style="display:block"><path fill="#FF4F01" d="M213.534 458.363a15.65 15.65 0 0 1-15.488-17.864l18.282-127.971H98.955a15.651 15.651 0 0 1-12.324-25.295L274.132 47.649a15.647 15.647 0 0 1 18.335-4.805 15.649 15.649 0 0 1 9.518 16.39l-18.644 149.159 117.771.543a15.65 15.65 0 0 1 11.796 25.851L225.407 452.914a15.647 15.647 0 0 1-11.873 5.449zm-82.458-177.135h103.297a15.652 15.652 0 0 1 15.493 17.863l-13.254 92.771 130.472-151.783-101.533-.468a15.648 15.648 0 0 1-15.457-17.591l13.815-110.523-132.833 169.731z" class="primary"/></g></g><g clip-path="url(#c)" style="display:none"><g class="primary design" style="display:none"><path fill="none" class="primary"/></g><g class="primary design" style="display:none"><path class="primary"/></g></g></g></svg>